<?xml version="1.0" encoding="UTF-8" standalone="no"?>
<!DOCTYPE svg PUBLIC "-//W3C//DTD SVG 1.1//EN"
"http://www.w3.org/Graphics/SVG/1.1/DTD/svg11.dtd">
<svg viewBox="0 0 909 1286" version="1.1" xmlns="http://www.w3.org/2000/svg" xmlns:xlink="http://www.w3.org/1999/xlink">
<defs>
<clipPath id="c0_1"><path d="M709.8,272.3c-65.3,0,-118.3,-53,-118.3,-118.4c0,-65.3,53,-118.3,118.3,-118.3c65.4,0,118.3,53,118.3,118.3c0,65.4,-52.9,118.4,-118.3,118.4Z" /></clipPath>
<style type="text/css"><![CDATA[
.g1_1{
fill: #231F20;
}
.g2_1{
fill: #A9E0F7;
}
.g3_1{
fill: #FFFFFF;
}
.g4_1{
fill: none;
stroke: #FFFFFF;
stroke-width: 7.638889;
stroke-linecap: butt;
stroke-linejoin: miter;
}
.g5_1{
fill: #A9E0F6;
stroke: #A9E0F6;
stroke-width: 7.638889;
stroke-linecap: butt;
stroke-linejoin: miter;
}
.g6_1{
fill: none;
stroke: #231F20;
stroke-width: 1.5277778;
stroke-linecap: butt;
stroke-linejoin: miter;
}
.g7_1{
fill: none;
stroke: #231F20;
stroke-width: 1.0694444;
stroke-linecap: butt;
stroke-linejoin: miter;
}
]]></style>
</defs>
<path d="M0,201.4l909.5,0L909.5,0L0,0L0,201.4Z" class="g1_1" />
<g clip-path="url(#c0_1)">
<path d="M1157.6,318.3l-646.3,0l0,-329l646.3,0l0,329Z" class="g2_1" />
</g>
<image preserveAspectRatio="none" x="474" y="4" width="472" height="314" xlink:href="img/1.png" />
<path d="M70.9,33.9c5,0,5,-7.6,0,-7.6c-4.9,0,-4.9,7.6,0,7.6Z" class="g1_1" />
<path d="M485.9,182.3l-440.1,0l0,-164.1l440.1,0l0,164.1Z" class="g1_1" />
<path d="M130.3,42.6L141,61.1L85.1,157.9l-21.6,0Z" class="g3_1" />
<path d="M141,61.1L130.3,42.6L63.5,157.9l21.6,0L141,61.1Z" class="g4_1" />
<path d="M141,61.1L85.1,157.9L196.9,158L141,61.1Z" class="g4_1" />
<path d="M59.7,134.1l142.1,0" class="g5_1" />
<path d="M244.8,73.6l0,8c0,9.7,-5,15.2,-14.5,15.2c-9.6,0,-14.6,-5.5,-14.6,-15.2l0,-31.5c0,-9.7,5,-15.2,14.6,-15.2c9.5,0,14.5,5.5,14.5,15.2l0,5.9l-9.2,0l0,-6.5c0,-4.3,-2,-5.9,-5.1,-5.9c-3.1,0,-5,1.6,-5,5.9l0,32.7c0,4.3,1.9,5.9,5,5.9c3.1,0,5.1,-1.6,5.1,-5.9l0,-8.6Z" class="g3_1" />
<path d="M260,76.9l9.4,0L264.7,46.3Zm22.3,19.2l-9.9,0l-1.7,-11l-11.9,0l-1.7,11l-8.9,0l9.9,-60.5l14.2,0Z" class="g3_1" />
<path d="M296.5,44.3l0,18.5l3.8,0c3.7,0,5.9,-1.5,5.9,-6.4l0,-5.9c0,-4.3,-1.5,-6.2,-5,-6.2Zm10.7,51.8c-0.6,-1.5,-0.9,-2.5,-0.9,-7.4l0,-9.5c0,-5.6,-2,-7.7,-6.4,-7.7l-3.4,0l0,24.6l-9.7,0l0,-60.5l14.7,0c10.1,0,14.4,4.6,14.4,13.9l0,4.8c0,6.2,-2,10.3,-6.3,12.3c4.8,1.9,6.4,6.5,6.4,12.8l0,9.4c0,2.9,0.1,5.1,1.1,7.3Z" class="g3_1" />
<path d="M322.4,35.6l9.7,0l0,51.9l16.1,0l0,8.6l-25.8,0Z" class="g3_1" />
<path d="M361.7,76.9l9.4,0L366.4,46.3ZM384,96.1l-9.9,0l-1.7,-11l-11.9,0l-1.7,11l-8.9,0l9.9,-60.5l14.2,0Z" class="g3_1" />
<path d="M226.3,165l-9.8,0l0,-60.6l9.8,0l0,26l11.1,0l0,-26l9.9,0l0,60.6l-9.9,0l0,-26l-11.1,0Z" class="g3_1" />
<path d="M264.1,129.9l13.4,0l0,8.7l-13.4,0l0,17.7l16.8,0l0,8.7l-26.5,0l0,-60.6l26.5,0l0,8.7l-16.8,0Z" class="g3_1" />
<path d="M296.1,144.9L283.8,104.4l10.2,0l7.4,27.6l7.4,-27.6l9.3,0l-12.3,40.5l0,20.1l-9.7,0Z" class="g3_1" />
<path d="M343.7,132.7L340.1,165l-13.4,0l-6.9,-60.6l9.5,0l5.2,47.8l4.7,-47.8l9.4,0l4.9,48.1l5,-48.1l8.5,0L360.1,165l-12.9,0Z" class="g3_1" />
<path d="M380.9,151c0,4.4,1.9,6,5,6c3.1,0,5.1,-1.6,5.1,-6l0,-32.6c0,-4.4,-2,-6,-5.1,-6c-3.1,0,-5,1.6,-5,6Zm-9.8,-32c0,-9.7,5.2,-15.2,14.8,-15.2c9.6,0,14.8,5.5,14.8,15.2l0,31.4c0,9.7,-5.2,15.2,-14.8,15.2c-9.6,0,-14.8,-5.5,-14.8,-15.2Z" class="g3_1" />
<path d="M415.9,151c0,4.4,2,6,5.1,6c3.1,0,5,-1.6,5,-6l0,-32.6c0,-4.4,-1.9,-6,-5,-6c-3.1,0,-5.1,1.6,-5.1,6Zm-9.7,-32c0,-9.7,5.2,-15.2,14.8,-15.2c9.6,0,14.8,5.5,14.8,15.2l0,31.4c0,9.7,-5.2,15.2,-14.8,15.2c-9.6,0,-14.8,-5.5,-14.8,-15.2Z" class="g3_1" />
<path d="M451.8,113.1l0,43.2l5.5,0c3.1,0,5,-1.5,5,-5.9l0,-31.4c0,-4.4,-1.9,-5.9,-5,-5.9Zm-9.7,-8.7l15.4,0c9.7,0,14.5,5.3,14.5,15l0,30.6c0,9.7,-4.8,15,-14.5,15l-15.4,0Z" class="g3_1" />
<path d="M882.2,443.6l-352.4,0l0,-152.6l352.4,0l0,152.6Z" class="g6_1" />
<path d="M881.9,340.4l-352.3,0l0,-49.4l352.3,0l0,49.4Z" class="g1_1" />
<path d="M494.2,534.6l415.3,0l0,-49.4l-415.3,0l0,49.4Z" class="g1_1" />
<path d="M494.2,843l415.3,0l0,-49.4l-415.3,0l0,49.4Z" class="g1_1" />
<path d="M0,299.1l454.7,0l0,-52.5L0,246.6l0,52.5Z" class="g1_1" />
<path d="M494.2,1179l415.3,0l0,-49.4l-415.3,0l0,49.4Z" class="g1_1" />
<path d="M0,536.2l454.7,0l0,-52.6L0,483.6l0,52.6Z" class="g1_1" />
<path d="M0,775.4l454.4,0l0,-52.6L0,722.8l0,52.6Z" class="g1_1" />
<path d="M0,1129.1l454.7,0l0,-52.6L0,1076.5l0,52.6Z" class="g1_1" />
<path d="M62.5,1019.7l329.5,0Z" class="g7_1" />
<path d="M78,1045.3l298.5,0Z" class="g7_1" />
<path d="M748.5,556.5c0,5,-4,9.1,-9,9.1c-5,0,-9.1,-4.1,-9.1,-9.1c0,-5,4.1,-9.1,9.1,-9.1c5,0,9,4.1,9,9.1Z" class="g2_1" />
<path d="M770.2,556.5c0,5,-4,9.1,-9,9.1c-5,0,-9.1,-4.1,-9.1,-9.1c0,-5,4.1,-9.1,9.1,-9.1c5,0,9,4.1,9,9.1Z" class="g2_1" />
<path d="M792.2,556.5c0,5,-4,9.1,-9,9.1c-5,0,-9.1,-4.1,-9.1,-9.1c0,-5,4.1,-9.1,9.1,-9.1c5,0,9,4.1,9,9.1Z" class="g2_1" />
<path d="M813.7,556.5c0,5,-4,9.1,-9,9.1c-5,0,-9.1,-4.1,-9.1,-9.1c0,-5,4.1,-9.1,9.1,-9.1c5,0,9,4.1,9,9.1Z" class="g2_1" />
<path d="M836,556.5c0,5,-4,9.1,-9.1,9.1c-5,0,-9,-4.1,-9,-9.1c0,-5,4,-9.1,9,-9.1c5.1,0,9.1,4.1,9.1,9.1Z" class="g2_1" />
<path d="M857.5,556.5c0,5,-4.1,9.1,-9.1,9.1c-5,0,-9.1,-4.1,-9.1,-9.1c0,-5,4.1,-9.1,9.1,-9.1c5,0,9.1,4.1,9.1,9.1Z" class="g2_1" />
<path d="M748.5,632.5c0,5,-4,9,-9,9c-5,0,-9.1,-4,-9.1,-9c0,-5,4.1,-9.1,9.1,-9.1c5,0,9,4.1,9,9.1Z" class="g2_1" />
<path d="M770.2,632.5c0,5,-4,9,-9,9c-5,0,-9.1,-4,-9.1,-9c0,-5,4.1,-9.1,9.1,-9.1c5,0,9,4.1,9,9.1Z" class="g2_1" />
<path d="M792.2,632.5c0,5,-4,9,-9,9c-5,0,-9.1,-4,-9.1,-9c0,-5,4.1,-9.1,9.1,-9.1c5,0,9,4.1,9,9.1Z" class="g2_1" />
<path d="M813.7,632.5c0,5,-4,9,-9,9c-5,0,-9.1,-4,-9.1,-9c0,-5,4.1,-9.1,9.1,-9.1c5,0,9,4.1,9,9.1Z" class="g2_1" />
<path d="M836,632.5c0,5,-4,9,-9.1,9c-5,0,-9,-4,-9,-9c0,-5,4,-9.1,9,-9.1c5.1,0,9.1,4.1,9.1,9.1Z" class="g2_1" />
<path d="M857.5,632.5c0,5,-4.1,9,-9.1,9c-5,0,-9.1,-4,-9.1,-9c0,-5,4.1,-9.1,9.1,-9.1c5,0,9.1,4.1,9.1,9.1Z" class="g2_1" />
<path d="M748.5,736.6c0,5,-4,9,-9,9c-5,0,-9.1,-4,-9.1,-9c0,-5,4.1,-9.1,9.1,-9.1c5,0,9,4.1,9,9.1Z" class="g2_1" />
<path d="M770.2,736.6c0,5,-4,9,-9,9c-5,0,-9.1,-4,-9.1,-9c0,-5,4.1,-9.1,9.1,-9.1c5,0,9,4.1,9,9.1Z" class="g2_1" />
<path d="M792.2,736.6c0,5,-4,9,-9,9c-5,0,-9.1,-4,-9.1,-9c0,-5,4.1,-9.1,9.1,-9.1c5,0,9,4.1,9,9.1Z" class="g2_1" />
<path d="M813.7,736.6c0,5,-4,9,-9,9c-5,0,-9.1,-4,-9.1,-9c0,-5,4.1,-9.1,9.1,-9.1c5,0,9,4.1,9,9.1Z" class="g2_1" />
<path d="M836,736.6c0,5,-4,9,-9.1,9c-5,0,-9,-4,-9,-9c0,-5,4,-9.1,9,-9.1c5.1,0,9.1,4.1,9.1,9.1Z" class="g2_1" />
<path d="M857.5,736.6c0,5,-4.1,9,-9.1,9c-5,0,-9.1,-4,-9.1,-9c0,-5,4.1,-9.1,9.1,-9.1c5,0,9.1,4.1,9.1,9.1Z" class="g2_1" />
<path d="M748.5,762.7c0,5.1,-4,9.1,-9,9.1c-5,0,-9.1,-4,-9.1,-9.1c0,-5,4.1,-9,9.1,-9c5,0,9,4,9,9Z" class="g2_1" />
<path d="M770.2,762.7c0,5.1,-4,9.1,-9,9.1c-5,0,-9.1,-4,-9.1,-9.1c0,-5,4.1,-9,9.1,-9c5,0,9,4,9,9Z" class="g2_1" />
<path d="M792.2,762.7c0,5.1,-4,9.1,-9,9.1c-5,0,-9.1,-4,-9.1,-9.1c0,-5,4.1,-9,9.1,-9c5,0,9,4,9,9Z" class="g2_1" />
<path d="M813.7,762.7c0,5.1,-4,9.1,-9,9.1c-5,0,-9.1,-4,-9.1,-9.1c0,-5,4.1,-9,9.1,-9c5,0,9,4,9,9Z" class="g2_1" />
<path d="M836,762.7c0,5.1,-4,9.1,-9.1,9.1c-5,0,-9,-4,-9,-9.1c0,-5,4,-9,9,-9c5.1,0,9.1,4,9.1,9Z" class="g2_1" />
<path d="M857.5,762.7c0,5.1,-4.1,9.1,-9.1,9.1c-5,0,-9.1,-4,-9.1,-9.1c0,-5,4.1,-9,9.1,-9c5,0,9.1,4,9.1,9Z" class="g2_1" />
<path d="M748.5,709.1c0,5,-4,9.1,-9,9.1c-5,0,-9.1,-4.1,-9.1,-9.1c0,-5,4.1,-9.1,9.1,-9.1c5,0,9,4.1,9,9.1Z" class="g2_1" />
<path d="M770.2,709.1c0,5,-4,9.1,-9,9.1c-5,0,-9.1,-4.1,-9.1,-9.1c0,-5,4.1,-9.1,9.1,-9.1c5,0,9,4.1,9,9.1Z" class="g2_1" />
<path d="M748.5,605.7c0,5,-4,9.1,-9,9.1c-5,0,-9.1,-4.1,-9.1,-9.1c0,-5,4.1,-9,9.1,-9c5,0,9,4,9,9Z" class="g2_1" />
<path d="M770.2,605.7c0,5,-4,9.1,-9,9.1c-5,0,-9.1,-4.1,-9.1,-9.1c0,-5,4.1,-9,9.1,-9c5,0,9,4,9,9Z" class="g2_1" />
<path d="M792.2,605.7c0,5,-4,9.1,-9,9.1c-5,0,-9.1,-4.1,-9.1,-9.1c0,-5,4.1,-9,9.1,-9c5,0,9,4,9,9Z" class="g2_1" />
<path d="M748.5,581.1c0,5,-4,9.1,-9,9.1c-5,0,-9.1,-4.1,-9.1,-9.1c0,-5,4.1,-9,9.1,-9c5,0,9,4,9,9Z" class="g2_1" />
<path d="M770.2,581.1c0,5,-4,9.1,-9,9.1c-5,0,-9.1,-4.1,-9.1,-9.1c0,-5,4.1,-9,9.1,-9c5,0,9,4,9,9Z" class="g2_1" />
<path d="M792.2,581.1c0,5,-4,9.1,-9,9.1c-5,0,-9.1,-4.1,-9.1,-9.1c0,-5,4.1,-9,9.1,-9c5,0,9,4,9,9Z" class="g2_1" />
<path d="M748.5,657.4c0,5,-4.1,9.1,-9.1,9.1c-5,0,-9,-4.1,-9,-9.1c0,-5,4,-9.1,9,-9.1c5,0,9.1,4.1,9.1,9.1Z" class="g2_1" />
<path d="M770.2,657.4c0,5,-4.1,9.1,-9.1,9.1c-5,0,-9,-4.1,-9,-9.1c0,-5,4,-9.1,9,-9.1c5,0,9.1,4.1,9.1,9.1Z" class="g2_1" />
<path d="M792.2,657.4c0,5,-4.1,9.1,-9.1,9.1c-5,0,-9,-4.1,-9,-9.1c0,-5,4,-9.1,9,-9.1c5,0,9.1,4.1,9.1,9.1Z" class="g2_1" />
<path d="M813.7,657.4c0,5,-4.1,9.1,-9.1,9.1c-5,0,-9.1,-4.1,-9.1,-9.1c0,-5,4.1,-9.1,9.1,-9.1c5,0,9.1,4.1,9.1,9.1Z" class="g2_1" />
<path d="M836,657.4c0,5,-4.1,9.1,-9.1,9.1c-5,0,-9.1,-4.1,-9.1,-9.1c0,-5,4.1,-9.1,9.1,-9.1c5,0,9.1,4.1,9.1,9.1Z" class="g2_1" />
<path d="M748.4,683.2c0,5.1,-4.1,9.1,-9.1,9.1c-5,0,-9.1,-4,-9.1,-9.1c0,-5,4.1,-9,9.1,-9c5,0,9.1,4,9.1,9Z" class="g2_1" />
<path d="M770.1,683.2c0,5.1,-4.1,9.1,-9.1,9.1c-5,0,-9.1,-4,-9.1,-9.1c0,-5,4.1,-9,9.1,-9c5,0,9.1,4,9.1,9Z" class="g2_1" />
<path d="M792.1,683.2c0,5.1,-4.1,9.1,-9.1,9.1c-5,0,-9,-4,-9,-9.1c0,-5,4,-9,9,-9c5,0,9.1,4,9.1,9Z" class="g2_1" />
</svg>